<svg id="logo" xmlns="http://www.w3.org/2000/svg" width="33.662" height="32" viewBox="0 0 33.662 32">
  <path id="Path_1" data-name="Path 1" d="M75.927,133.783l-3.227-.468-5.21-10.541L62.3,133.315,50.667,135l8.414,8.2-.142.829c3.745-1.144,9.1-3.807,15.2-8.139l-3.026-.034Z" transform="translate(-50.667 -122.774)" fill="#80c525"/>
  <g id="Group_2" data-name="Group 2" transform="translate(1.838 9.297)">
    <g id="Group_1" data-name="Group 1">
      <path id="Path_2" data-name="Path 2" d="M63.518,187.264c.183-.236,1.32-1.727,1.32-1.727s-1.793-1.7-1.793-1.667C61.6,185.528,60.212,187.578,63.518,187.264Z" transform="translate(-60.152 -175.267)" fill="#15a1c4" fill-rule="evenodd"/>
      <path id="Path_3" data-name="Path 3" d="M75.55,158.3l3.026.034c-7.133,5.061-13.24,7.846-16.954,8.59-4.036.809-5.375-.633-2.011-4.339l-.256-.24c-4.4,4.782-2.344,6.336,2.623,5.2,4.243-.967,10.81-4.1,17.834-9.395l-2.766-.027,6.631-2.976-2.1,4.2,2.76-4.84-.882.377Z" transform="translate(-56.941 -154.506)" fill="#15a1c4" fill-rule="evenodd"/>
    </g>
  </g>
  <path id="Path_4" data-name="Path 4" d="M88.475,162.467l-5.691-.826L81.065,164.8l0-.011-.953,1.553.221-2.417C73.691,170.323,67.267,174,62.711,175.4l-.31.092h0c-2.926.845-5.036.718-5.87-.258,1.078,2.116,5.614,1.161,5.614,1.161,3.818-.629,11.425-5.608,11.425-5.608-3.343,3.343-9.843,6.126-11.487,6.561l-.842,4.908,5.554-2.922h0l4.842-2.547,2.165,1.139h0l8.238,4.332-1.979-11.585Z" transform="translate(-54.812 -150.253)" fill="#15a1c4" fill-rule="evenodd"/>
</svg>
