<svg xmlns="http://www.w3.org/2000/svg" width="40" height="40" viewBox="0 0 40 40">
  <g id="avatar-01" transform="translate(-1130 -69)">
    <circle id="Ellipse_18" data-name="Ellipse 18" cx="20" cy="20" r="20" transform="translate(1130 69)"/>
    <g id="Group_2011" data-name="Group 2011" transform="translate(1117 -664)">
      <rect id="Rectangle_3507" data-name="Rectangle 3507" width="22" height="22" transform="translate(22 741)" fill="none"/>
      <g id="Group_2010" data-name="Group 2010" transform="translate(0 0.55)">
        <path id="Path_702" data-name="Path 702" d="M3779.94,37.55a4.05,4.05,0,1,0-4.05-4.05A4.054,4.054,0,0,0,3779.94,37.55Z" transform="translate(-3747 713)" fill="none" stroke="#fff" stroke-width="1.5"/>
        <path id="Path_703" data-name="Path 703" d="M3783.92,42.114l.39-.637h0Zm.07.046-.39.637h0Zm3.6,5.54-.75.1Zm-.7.477a.757.757,0,0,0,.85.64.747.747,0,0,0,.64-.845Zm-15.4-.2a.755.755,0,0,0,.65.845.747.747,0,0,0,.84-.64Zm.82-.416-.74-.1Zm3.42-5.371-.41-.63Zm7.79.565.08.046.79-1.273-.08-.046Zm3.32,5.052.05.375,1.49-.2-.05-.375Zm-13.86.375.07-.519-1.48-.2-.08.519Zm.07-.519a6.9,6.9,0,0,1,3.09-4.844l-.82-1.259a8.374,8.374,0,0,0-3.75,5.9ZM3783.6,42.8a7.011,7.011,0,0,1,3.24,5.006l1.49-.2a8.541,8.541,0,0,0-3.94-6.075Zm.71-1.319a8.385,8.385,0,0,0-8.99.078l.82,1.259a6.881,6.881,0,0,1,7.38-.064Z" transform="translate(-3747 713)" fill="#fff"/>
      </g>
    </g>
  </g>
</svg>
