<?xml version="1.0" standalone="no"?>
<!DOCTYPE svg PUBLIC "-//W3C//DTD SVG 20010904//EN"
 "http://www.w3.org/TR/2001/REC-SVG-20010904/DTD/svg10.dtd">
<svg version="1.0" xmlns="http://www.w3.org/2000/svg"
 width="330.000000pt" height="330.000000pt" viewBox="0 0 330.000000 330.000000"
 preserveAspectRatio="xMidYMid meet">
<metadata>
Created by potrace 1.11, written by Peter Selinger 2001-2013
</metadata>
<g transform="translate(0.000000,330.000000) scale(0.100000,-0.100000)"
fill="#000000" stroke="none">
<path d="M1454 2971 c-381 -632 -420 -698 -588 -976 -93 -154 -181 -301 -196
-326 l-28 -46 40 -24 c22 -13 46 -30 53 -36 7 -7 16 -13 19 -13 3 0 52 -28
108 -61 57 -34 117 -69 133 -79 17 -9 82 -48 145 -85 63 -38 162 -96 220 -130
58 -34 135 -80 171 -102 36 -23 80 -48 97 -57 l32 -17 232 139 c128 76 355
210 505 297 150 88 272 163 273 167 0 10 -273 462 -282 466 -5 2 -8 8 -8 13 0
5 -32 62 -71 127 -40 64 -115 189 -167 277 -53 88 -100 162 -104 163 -4 2 -8
8 -8 13 0 5 -46 86 -102 179 -57 94 -136 226 -176 293 -40 67 -79 128 -86 135
-11 11 -48 -44 -212 -317z"/>
<path d="M688 1363 c27 -38 248 -349 492 -693 244 -344 451 -635 460 -647 20
-25 -58 -129 671 897 341 479 362 510 354 510 -4 0 -50 -27 -103 -59 -54 -32
-113 -68 -132 -79 -33 -18 -117 -67 -367 -216 -60 -34 -174 -102 -255 -150
-80 -47 -149 -86 -152 -86 -3 0 -29 14 -58 32 -29 17 -62 36 -73 42 -30 17
-245 145 -468 278 -109 65 -200 118 -202 118 -2 0 -47 27 -102 60 -54 33 -101
60 -105 60 -5 0 14 -30 40 -67z"/>
</g>
</svg>
