<svg width="143" height="107" viewBox="0 0 143 107" fill="none" xmlns="http://www.w3.org/2000/svg">
<path opacity="0.62" d="M119.361 28C120.59 18.0203 120.212 15.0878 128.722 14C120.401 12.6284 120.259 9.55405 119.361 0C118.179 9.64865 118.415 12.5338 110 14C118.51 15.0878 118.226 18.0676 119.361 28ZM137.941 27.7635C138.603 22.3716 138.414 20.8108 143 20.1959C138.461 19.4392 138.414 17.7838 137.941 12.6284C137.327 17.8311 137.421 19.3919 132.883 20.1959C137.468 20.7635 137.327 22.3716 137.941 27.7635ZM133.308 12.6757C133.781 8.89189 133.639 7.80405 136.854 7.37838C133.686 6.85811 133.639 5.67568 133.308 2.08108C132.883 5.72297 132.977 6.81081 129.762 7.37838C132.977 7.75676 132.883 8.89189 133.308 12.6757Z" fill="white"/>
<path d="M17.6909 29C7.89171 29 0 36.9013 0 46.7132V50.7121H46.5101C47.4351 46.5975 51.1207 43.5006 55.5 43.5006C59.8793 43.5006 63.5649 46.5975 64.4899 50.7121H111V46.7132C111 36.9017 103.109 29 93.3091 29H17.6909ZM55.4999 47.5035C52.5707 47.5035 50.2775 49.7997 50.2775 52.7325V58.7189H60.7223V52.7325C60.7223 49.7997 58.429 47.5035 55.4999 47.5035ZM0 54.715V107H111V54.715H64.7166V58.7139H68.7683V69.712C68.7683 70.0979 68.749 70.479 68.7153 70.8553C68.749 71.2315 68.7683 71.6126 68.7683 71.9985V82.9966H42.232V71.9985C42.232 71.6126 42.2512 71.2315 42.2849 70.8553C42.2512 70.479 42.232 70.0979 42.232 69.712V58.7139H46.2837V54.715H0ZM55.4999 61.9988C52.8791 61.9988 50.7544 64.1262 50.7544 66.7503C50.7592 68.5978 51.8287 70.2765 53.5005 71.0531L51.901 78.284H59.0938L57.4943 71.0483C59.1661 70.2717 60.2404 68.593 60.2404 66.7455C60.2404 64.1214 58.1158 61.994 55.4949 61.994L55.4999 61.9988ZM3.99352 91.3804C10.401 91.3804 15.5945 96.5804 15.5945 102.996H3.99352V91.3804ZM107.005 91.3804V102.996H95.404C95.404 96.5804 100.597 91.3804 107.005 91.3804Z" fill="white"/>
</svg>
