<svg width="26" height="26" viewBox="0 0 26 26" fill="none" xmlns="http://www.w3.org/2000/svg">
<path fill-rule="evenodd" clip-rule="evenodd" d="M13 26C20.1797 26 26 20.1797 26 13C26 5.8203 20.1797 0 13 0C5.8203 0 0 5.8203 0 13C0 20.1797 5.8203 26 13 26Z" fill="#E4FFF8"/>
<path fill-rule="evenodd" clip-rule="evenodd" d="M18.6157 9.28352C19.0878 9.69589 19.1309 10.4069 18.712 10.8717L12.6275 17.6217C12.4233 17.8483 12.1349 17.9842 11.8275 17.9987C11.5201 18.0132 11.2198 17.9051 10.9944 17.6988L7.36458 14.376C6.90238 13.9529 6.87613 13.241 7.30596 12.7861C7.73579 12.3311 8.45893 12.3052 8.92114 12.7284L11.6943 15.267L17.0023 9.37834C17.4212 8.9136 18.1435 8.87115 18.6157 9.28352Z" fill="#23CEA5"/>
</svg>
