<svg width="100" height="100" viewBox="0 0 100 100" fill="none" xmlns="http://www.w3.org/2000/svg">
<path d="M18.844 50.52C18.8479 50.7232 18.8909 50.9146 18.9729 51.0982C19.0002 51.1607 19.0198 51.2193 19.0549 51.2779C19.1799 51.4888 19.3401 51.6763 19.5627 51.813C19.5666 51.8169 19.5705 51.8169 19.5744 51.8169C19.5784 51.8208 19.5784 51.8247 19.5823 51.8247L49.3403 69.2587C49.3637 69.2744 49.391 69.2665 49.4145 69.2783C49.6293 69.3876 49.8637 69.4697 50.1254 69.4697C50.3871 69.4697 50.6215 69.3876 50.8403 69.2744C50.8676 69.2626 50.8988 69.2666 50.9262 69.2548L80.1532 51.8168C80.3837 51.6801 80.5438 51.4848 80.6727 51.2739C80.7079 51.2153 80.7313 51.1606 80.7548 51.0981C80.8368 50.9106 80.8798 50.7192 80.8876 50.52C80.8876 50.477 80.9149 50.4418 80.911 50.4028C80.911 50.3832 80.8954 50.3715 80.8915 50.352C80.8719 50.1215 80.8173 49.8989 80.6923 49.6879L51.4623 0.757934C51.4505 0.738403 51.431 0.730591 51.4193 0.71106C51.3841 0.656372 51.3412 0.6095 51.2982 0.56262C51.2435 0.50012 51.1888 0.44543 51.1263 0.38684C51.0794 0.347777 51.0365 0.304809 50.9857 0.27356C50.9662 0.257934 50.9544 0.238403 50.9349 0.226684C50.8998 0.207153 50.8646 0.207153 50.8294 0.187622C50.763 0.152466 50.6927 0.125122 50.6185 0.0977781C50.556 0.0743411 50.4935 0.0548091 50.4271 0.0391841C50.3607 0.0235591 50.2982 0.0196531 50.2318 0.0196531C50.1927 0.0196531 50.1615 0.00012207 50.1263 0.00012207C50.0912 0.00012207 50.0638 0.0196531 50.0248 0.0196531C49.9623 0.0274657 49.8998 0.0274657 49.8373 0.0391841C49.7669 0.0509031 49.7005 0.0743401 49.6302 0.0977781C49.556 0.121216 49.4896 0.14856 49.4193 0.187622C49.388 0.203247 49.3529 0.203247 49.3216 0.222778C49.3021 0.234497 49.2943 0.254028 49.2747 0.261841C49.2201 0.296997 49.1732 0.339966 49.1224 0.386841C49.0599 0.441528 49.0052 0.492311 48.9505 0.558721C48.9115 0.605596 48.8685 0.648565 48.8372 0.699341C48.8216 0.718872 48.8021 0.730591 48.7904 0.750122L19.0364 49.6801C18.9075 49.8911 18.8489 50.1176 18.8293 50.352C18.8254 50.3715 18.8137 50.3832 18.8098 50.4067C18.8137 50.4418 18.8411 50.4809 18.845 50.52L18.844 50.52ZM51.68 7.19205L75.446 46.981L51.68 36.079V7.19205ZM48.5706 36.071L24.3086 47.005L48.5706 7.10705V36.071ZM48.5706 39.4851V65.2041L23.7546 50.6651L48.5706 39.4851ZM51.68 65.1801V39.5001L76.012 50.6641L51.68 65.1801Z" fill="white"/>
<path d="M80.773 55.8361C80.2808 55.297 79.4683 55.1876 78.8394 55.5509L50.1244 72.5039L21.4214 55.5509C20.7925 55.1876 19.9839 55.297 19.4839 55.8361C18.9878 56.379 18.9331 57.1916 19.3589 57.7892L48.8549 99.3442C48.8783 99.3754 48.9174 99.3871 48.9408 99.4145C49.0033 99.4887 49.0619 99.5551 49.1322 99.6137C49.1674 99.641 49.1869 99.684 49.2221 99.7114C49.2494 99.7309 49.2885 99.7231 49.3197 99.7426C49.3705 99.77 49.4135 99.8129 49.4682 99.8403C49.6674 99.9379 49.8861 99.9965 50.1205 99.9965H50.1244H50.1283H50.1322H50.1361C50.3705 99.9965 50.5892 99.934 50.7885 99.8403C50.8431 99.8129 50.8861 99.7739 50.9369 99.7426C50.9681 99.7231 51.0033 99.7309 51.0346 99.7114C51.0697 99.6879 51.0932 99.645 51.1244 99.6137C51.1947 99.5512 51.2572 99.4887 51.3158 99.4145C51.3392 99.3871 51.3783 99.3754 51.4017 99.3442L80.9098 57.7892C81.3238 57.1915 81.2691 56.379 80.773 55.8361H80.773ZM48.57 75.2031V93.5661L26.121 61.9411L48.57 75.2031ZM51.6794 93.5621V75.2031L74.1324 61.9411L51.6794 93.5621Z" fill="white"/>
</svg>
