<?xml version="1.0" standalone="no" ?>
<!DOCTYPE svg PUBLIC "-//W3C//DTD SVG 20010904//EN"
  "http://www.w3.org/TR/2001/REC-SVG-20010904/DTD/svg10.dtd">
<svg
  version="1.0"
  xmlns="http://www.w3.org/2000/svg"
  width="1200.000000pt"
  height="223.000000pt"
  viewBox="0 0 1200.000000 223.000000"
  preserveAspectRatio="xMidYMid meet"
>
<g
    transform="translate(0.000000,223.000000) scale(0.100000,-0.100000)"
    fill="#21c49d"
    stroke="none"
  >
<path
      d="M5450 1705 c0 -3 14 -49 31 -102 l31 -98 161 -163 162 -162 -78 -78
c-87 -87 -89 -87 -108 11 l-12 57 -40 0 -40 0 7 -57 c4 -35 20 -86 41 -128
l34 -70 -119 -120 -120 -120 37 -38 38 -37 121 121 122 122 32 -23 c39 -28
139 -60 186 -60 33 0 34 1 34 38 l0 38 -57 12 c-98 21 -98 22 -11 109 l78 78
80 -80 81 -80 -28 -12 c-15 -6 -49 -14 -75 -18 l-48 -7 0 -40 0 -41 62 6 c43
4 82 16 127 40 l66 34 122 -121 123 -121 37 38 38 37 -122 123 -121 122 19 30
c28 45 56 124 61 178 l6 47 -44 0 c-42 0 -44 -2 -44 -28 0 -16 -7 -50 -16 -76
l-17 -48 -81 81 -81 81 166 167 166 168 27 93 c15 52 25 96 23 99 -3 2 -49 -9
-103 -26 l-98 -30 -163 -163 -163 -163 -162 162 -163 162 -96 30 c-99 32 -109
34 -109 26z m765 -255 c-119 -120 -183 -176 -189 -170 -20 20 320 346 364 350
3 0 -76 -81 -175 -180z m-278 -152 c217 -217 319 -326 313 -332 -7 -7 -119 98
-343 322 -224 224 -326 332 -312 332 12 0 138 -118 342 -322z m482 264 c-13
-39 -323 -347 -339 -337 -8 5 47 67 166 186 98 99 180 179 181 179 1 0 -2 -13
-8 -28z m-225 -652 c-12 -12 -639 614 -649 650 -4 16 115 -97 326 -307 223
-222 330 -336 323 -343z m-310 222 c3 -5 -32 -46 -78 -91 -56 -56 -86 -79 -91
-71 -5 8 21 41 71 91 79 79 88 86 98 71z m-19 -142 c-71 -71 -105 -95 -105
-73 0 4 37 45 82 90 55 55 86 79 92 73 7 -7 -16 -37 -69 -90z"
    />
<path
      d="M7100 1449 c-19 -11 -52 -39 -72 -62 l-37 -42 -1 28 c0 16 -10 38
-25 52 -22 23 -32 25 -110 25 -66 0 -85 -3 -85 -14 0 -8 12 -17 26 -20 45 -12
54 -54 54 -263 0 -201 -7 -233 -51 -233 -10 0 -19 -7 -19 -15 0 -13 22 -15
135 -15 113 0 135 2 135 15 0 8 -8 15 -18 15 -37 0 -42 19 -42 174 0 141 1
152 25 191 23 41 50 64 88 78 28 11 77 -43 77 -84 0 -28 -10 -43 -65 -94 -36
-33 -65 -67 -65 -76 0 -25 75 -132 121 -174 78 -71 165 -92 235 -59 52 25 128
115 174 205 22 45 40 89 41 98 0 21 118 -208 118 -232 1 -12 -9 -19 -29 -23
-16 -4 -30 -13 -30 -20 0 -12 51 -14 295 -14 291 0 335 5 268 31 -15 6 -31 16
-35 22 -4 7 -8 109 -8 228 0 197 2 217 18 232 10 10 26 17 35 17 9 0 17 7 17
15 0 13 -22 15 -140 15 -107 0 -140 -3 -140 -13 0 -7 14 -18 30 -24 l30 -11 0
-229 c0 -165 -3 -232 -12 -241 -7 -7 -29 -12 -49 -12 -52 0 -66 20 -204 285
-137 264 -131 258 -267 253 -45 -2 -83 -8 -85 -13 -2 -6 15 -19 38 -30 34 -16
49 -34 84 -96 l42 -76 -44 -92 c-64 -135 -131 -194 -198 -177 -52 13 -165 141
-165 187 0 10 16 27 36 40 58 36 94 93 94 152 0 42 -4 53 -34 83 -31 31 -39
34 -92 34 -42 0 -69 -6 -94 -21z"
    />
<path
      d="M8635 1451 c-22 -10 -50 -28 -62 -40 -26 -25 -33 -26 -33 -7 0 32
-42 46 -132 46 -72 0 -88 -3 -88 -15 0 -8 7 -15 15 -15 9 0 27 -11 40 -25 25
-24 25 -24 25 -234 0 -223 -4 -241 -51 -241 -10 0 -19 -7 -19 -15 0 -12 21
-15 123 -17 182 -4 275 1 312 16 53 23 120 91 146 149 33 77 38 194 9 269 -47
125 -172 181 -285 129z m72 -98 c72 -48 108 -233 61 -322 -35 -68 -66 -86
-146 -86 l-67 0 -3 184 c-2 180 -2 185 20 209 42 45 82 49 135 15z"
    />
<path
      d="M9342 1455 c-129 -40 -197 -143 -196 -295 1 -131 53 -227 149 -271
85 -40 263 -18 339 42 23 18 25 27 28 112 3 84 5 93 26 102 12 5 22 15 22 22
0 10 -34 13 -140 13 -118 0 -140 -2 -140 -15 0 -8 9 -15 19 -15 10 0 28 -8 40
-17 20 -17 22 -26 19 -113 l-3 -95 -30 -3 c-47 -5 -95 34 -130 103 -28 56 -30
68 -30 170 0 88 4 118 19 149 27 53 69 78 125 73 51 -6 84 -28 130 -88 18 -24
37 -45 42 -47 5 -2 9 39 9 92 0 97 -8 114 -37 85 -9 -9 -26 -9 -69 0 -74 14
-138 13 -192 -4z"
    />
<path
      d="M11505 1458 c-16 -6 -47 -23 -67 -40 -21 -16 -38 -24 -38 -18 0 5 -9
19 -20 30 -17 17 -33 20 -110 20 -73 0 -90 -3 -90 -15 0 -8 6 -15 13 -15 8 0
23 -10 35 -23 21 -22 22 -31 22 -241 l0 -217 -35 -15 c-61 -25 -41 -34 88 -36
267 -6 310 1 386 61 127 101 143 362 29 468 -51 48 -142 66 -213 41z m35 -93
c44 -23 78 -74 97 -148 15 -56 16 -74 6 -122 -24 -114 -77 -158 -181 -153
l-57 3 -3 170 c-3 189 3 216 52 246 37 23 49 23 86 4z"
    />
<path
      d="M195 1447 c-3 -7 -4 -134 -3 -282 l3 -270 175 0 c157 0 178 2 208 20
88 53 106 179 35 249 l-25 25 26 32 c22 25 26 41 26 89 0 49 -4 64 -27 91 -44
52 -74 59 -253 59 -120 0 -162 -3 -165 -13z m299 -98 c33 -26 34 -62 1 -94
-21 -22 -33 -25 -100 -25 l-75 0 0 70 0 70 74 0 c59 0 78 -4 100 -21z m-4
-222 c30 -15 45 -54 36 -90 -9 -39 -53 -57 -136 -57 l-70 0 0 80 0 80 73 0
c39 0 83 -6 97 -13z"
    />
<path
      d="M960 1248 c0 -186 3 -218 19 -254 44 -97 174 -139 308 -99 61 18 118
76 130 132 4 21 8 126 8 233 l0 195 -60 0 -60 0 -5 -206 c-4 -185 -7 -209 -24
-228 -44 -48 -140 -44 -174 7 -14 22 -18 59 -22 227 l-5 200 -57 3 -58 3 0
-213z"
    />
<path d="M1750 1175 l0 -285 60 0 60 0 0 285 0 285 -60 0 -60 0 0 -285z" />
<path
      d="M2205 1447 c-3 -7 -4 -134 -3 -282 l3 -270 198 -3 197 -2 0 50 0 50
-140 0 -140 0 0 235 0 235 -55 0 c-36 0 -57 -5 -60 -13z"
    />
<path
      d="M2752 1408 l3 -53 83 -3 82 -3 0 -230 0 -230 58 3 57 3 3 228 2 227
73 0 c39 0 78 4 85 9 9 5 12 24 10 52 l-3 44 -228 3 -228 2 3 -52z"
    />
<path
      d="M3870 1175 l0 -285 163 0 c138 0 168 3 204 20 95 42 123 175 53 250
l-29 31 24 25 c60 64 34 187 -48 225 -36 16 -67 19 -204 19 l-163 0 0 -285z
m283 184 c29 -16 37 -28 37 -61 0 -46 -40 -68 -126 -68 l-74 0 0 70 0 70 71 0
c39 0 80 -5 92 -11z m26 -243 c27 -24 28 -76 2 -107 -17 -21 -29 -24 -105 -28
l-86 -3 0 82 0 82 84 -3 c65 -3 89 -8 105 -23z"
    />
<path
      d="M4570 1446 c0 -8 42 -88 93 -178 l92 -163 5 -105 5 -105 58 -3 57 -3
0 96 0 97 100 177 c55 98 100 183 100 189 0 8 -20 12 -58 12 l-58 0 -70 -121
-71 -120 -69 120 -69 121 -57 0 c-43 0 -58 -4 -58 -14z"
    />
<path
      d="M9700 1438 c0 -7 15 -20 33 -28 l32 -15 5 -175 c6 -190 15 -227 68
-284 43 -45 97 -66 179 -66 82 0 116 10 156 48 64 61 78 112 86 317 l6 160 32
15 c62 29 41 40 -72 40 -86 0 -105 -3 -105 -15 0 -8 11 -17 24 -21 53 -13 58
-30 54 -191 -3 -135 -5 -152 -27 -190 -56 -97 -178 -96 -227 3 -16 33 -19 66
-22 202 l-4 163 31 12 c17 6 31 17 31 24 0 10 -33 13 -140 13 -105 0 -140 -3
-140 -12z"
    />
<path
      d="M10360 1437 c0 -7 14 -18 30 -24 l30 -11 0 -229 c0 -237 -3 -253 -42
-253 -10 0 -18 -7 -18 -15 0 -13 22 -15 140 -15 140 0 171 9 113 31 -15 6 -31
16 -35 22 -4 7 -8 109 -8 228 0 197 2 217 18 232 10 10 26 17 35 17 9 0 17 7
17 15 0 13 -22 15 -140 15 -107 0 -140 -3 -140 -13z"
    />
<path
      d="M10700 1437 c0 -7 14 -18 30 -24 l30 -11 0 -232 0 -231 -35 -15 c-19
-8 -35 -19 -35 -24 0 -6 80 -10 215 -10 216 0 216 0 240 25 24 23 26 30 29
137 1 35 -21 32 -33 -5 -13 -39 -54 -81 -94 -96 -16 -6 -53 -11 -83 -11 l-54
0 0 231 0 231 30 11 c17 6 30 17 30 24 0 10 -32 13 -135 13 -103 0 -135 -3
-135 -13z"
    />
</g>
</svg>
