<?xml version="1.0" encoding="UTF-8" standalone="no" ?>
<!DOCTYPE svg PUBLIC "-//W3C//DTD SVG 1.1//EN"
  "http://www.w3.org/Graphics/SVG/1.1/DTD/svg11.dtd">
<svg
  version="1.1"
  xmlns="http://www.w3.org/2000/svg"
  xmlns:xlink="http://www.w3.org/1999/xlink"
  preserveAspectRatio="xMidYMid meet"
  viewBox="-96 229 640 282"
  width="645.89"
  height="284.47"
><defs><path
      d="M233.93 516.63C128.79 516.59 9.7 511.48 -95.44 511.52C-95.96 511.52 -97.61 475.94 -98.04 436.63C-98.61 383.44 -97.86 318.25 -97.7 276.63C-97.66 264.85 -95.41 255.82 -95.41 249.89C-92.78 252.61 -90.6 255.76 -87.86 258.38C-83.17 262.89 -76.07 263.32 -70.95 259.36C-67.82 256.96 -65.53 253.74 -63.1 250.66C-59.35 245.94 -55.45 241.43 -50.53 237.9C-40.29 230.54 -24.05 230.31 -13.64 237.39C-8.25 241.07 -4.11 246 -0.04 251.05C2.59 254.31 5.1 257.68 8.52 260.13C12.21 262.76 19.07 262.48 22.68 259.73C26.25 257.03 28.85 253.4 31.61 249.92C35.49 245.03 39.59 240.37 44.87 237.07C50.96 233.26 57.62 231.87 64.7 232.24C72.5 232.65 79.22 235.68 85.06 240.9C90.32 245.62 94.33 251.55 99 256.82C100.85 258.9 102.9 260.73 105.59 261.41C110.63 262.67 115.19 261.87 119.06 257.92C122.71 254.18 125.7 249.83 129.15 245.9C133.07 241.44 137.41 237.63 142.77 235.1C147.74 232.75 152.9 232.1 158.27 232.23C168.04 232.49 175.93 236.87 182.56 244.07C185.98 247.76 188.93 251.88 192.19 255.72C194.18 258.1 196.38 260.31 199.34 261.24C204.89 262.98 209.76 261.69 213.89 257.31C217.32 253.7 220.83 249.48 224.25 245.87C224.25 333.82 235.36 516.63 233.93 516.63Z"
      id="bhrF9JkyV"
    /><linearGradient
      id="gradientb5jJbtW4Xg"
      gradientUnits="userSpaceOnUse"
      x1="-79.29"
      y1="230.89"
      x2="217.1"
      y2="533.22"
    ><stop style="stop-color: #92e9d1;stop-opacity: 1" offset="0%" /><stop
        style="stop-color: #89e8d3;stop-opacity: 1"
        offset="11.75%"
      /><stop
        style="stop-color: #6ee6d9;stop-opacity: 1"
        offset="51.980000000000004%"
      /><stop
        style="stop-color: #80d8dc;stop-opacity: 1"
        offset="78.81%"
      /><stop
        style="stop-color: #88d2dd;stop-opacity: 1"
        offset="100%"
      /></linearGradient><path
      d="M225.34 512.63C225.34 512.93 225.06 516.53 238.93 516.63C296.18 517.03 459.65 512.6 544.27 512.63C545.72 512.63 547.65 500.83 547.64 456.66C547.64 425.9 546.52 310.76 546.52 280C546.52 268.33 544.27 261.26 544.27 249.59C541.66 252.31 539.44 256.87 536.7 259.49C532 264 524.91 264.44 519.79 260.48C516.66 258.07 514.37 254.85 511.92 251.78C508.18 247.05 504.28 242.54 499.37 239.01C489.11 231.65 472.88 231.42 462.48 238.5C457.07 242.18 452.94 247.11 448.88 252.16C446.24 255.42 443.73 258.79 440.3 261.24C436.63 263.87 429.75 263.59 426.15 260.85C422.59 258.14 419.99 254.51 417.22 251.03C413.34 246.14 409.24 241.48 403.97 238.18C397.87 234.38 391.21 232.98 384.12 233.35C376.34 233.76 369.61 236.79 363.77 242.02C358.51 246.73 354.51 252.66 349.82 257.93C347.99 260.02 345.94 261.84 343.23 262.52C338.19 263.78 333.64 262.98 329.78 259.03C326.12 255.29 323.12 250.95 319.67 247.01C315.76 242.55 311.41 238.74 306.07 236.22C301.1 233.86 295.93 233.21 290.56 233.34C280.79 233.6 272.91 237.98 266.26 245.18C262.84 248.88 259.89 252.99 256.65 256.83C254.65 259.21 252.44 261.42 249.49 262.35C243.94 264.09 239.08 262.8 234.93 258.42C231.51 254.82 227.36 249.43 223.93 245.83C223.93 250.05 224.03 255.15 223.93 259.34C222.95 299.27 218.94 338.59 218.93 378.77C218.93 422.31 225.37 469.11 225.34 512.63Z"
      id="b4RqKVsA2C"
    /><linearGradient
      id="gradientcdqoT47J1"
      gradientUnits="userSpaceOnUse"
      x1="528.88"
      y1="232.01"
      x2="235.72"
      y2="533.18"
    ><stop style="stop-color: #92e9d1;stop-opacity: 1" offset="0%" /><stop
        style="stop-color: #89e8d3;stop-opacity: 1"
        offset="11.75%"
      /><stop
        style="stop-color: #6ee6d9;stop-opacity: 1"
        offset="51.980000000000004%"
      /><stop
        style="stop-color: #80d8dc;stop-opacity: 1"
        offset="78.81%"
      /><stop
        style="stop-color: #88d2dd;stop-opacity: 1"
        offset="100%"
      /></linearGradient></defs><g><g><use
        xlink:href="#bhrF9JkyV"
        opacity="1"
        fill="url(#gradientb5jJbtW4Xg)"
      /><g><use
          xlink:href="#bhrF9JkyV"
          opacity="1"
          fill-opacity="0"
          stroke="#000000"
          stroke-width="1"
          stroke-opacity="0"
        /></g></g><g><use
        xlink:href="#b4RqKVsA2C"
        opacity="1"
        fill="url(#gradientcdqoT47J1)"
      /><g><use
          xlink:href="#b4RqKVsA2C"
          opacity="1"
          fill-opacity="0"
          stroke="#000000"
          stroke-width="1"
          stroke-opacity="0"
        /></g></g></g></svg>
