<svg width="181" height="181" viewBox="0 0 181 181" fill="none" xmlns="http://www.w3.org/2000/svg">
<path d="M132.695 76.6572C122.478 76.6784 112.678 80.6944 105.389 87.8566C105.206 87.9838 105.036 88.1323 104.894 88.3091C104.894 88.3091 104.626 88.6272 104.223 89.0727C103.82 89.5252 103.233 90.1049 102.469 90.918C97.3858 95.9096 84.9279 106.664 72.9573 104.953C70.3413 104.747 67.9515 103.418 66.389 101.311C64.9537 98.5399 64.5153 95.3651 65.1305 92.3108C73.5582 92.2683 81.6396 88.9735 87.6993 83.1123C93.7587 77.2581 97.322 69.2899 97.6544 60.8692C97.6756 60.0844 97.3857 59.3208 96.8413 58.7552C96.2898 58.2037 95.5545 57.8855 94.7768 57.8502C93.695 57.8502 68.0087 57.7158 53.4798 70.0888C38.9504 57.7159 13.2145 57.8502 12.0905 57.8502C11.3128 57.8926 10.5846 58.2107 10.019 58.7552C9.46751 59.3066 9.17056 60.0773 9.21298 60.8692C9.55236 69.085 12.9673 76.8765 18.7863 82.696C24.605 88.5078 32.3965 91.9299 40.613 92.2693C39.1707 100.952 36.9223 124.163 49.4297 139.909C52.3992 143.663 56.0829 146.802 60.2756 149.128C68.1591 153.201 76.9544 155.202 85.8274 154.933H132.703H132.696C139.441 154.94 146.066 153.172 151.905 149.807C162.009 144.101 169.058 134.21 171.151 122.798C173.244 111.387 170.154 99.6356 162.73 90.7196C155.299 81.8109 144.297 76.6568 132.695 76.6568L132.695 76.6572ZM140.253 121.78C138.542 121.78 137.001 120.748 136.35 119.164C135.693 117.588 136.054 115.771 137.263 114.562C138.479 113.353 140.296 112.985 141.872 113.643C143.456 114.3 144.481 115.841 144.481 117.552C144.488 118.67 144.043 119.744 143.244 120.543C142.452 121.335 141.378 121.78 140.253 121.78L140.253 121.78Z" fill="white" fill-opacity="0.54"/>
<path d="M108.289 53.4368C109.06 53.4368 109.795 53.1327 110.339 52.5883C110.884 52.0439 111.188 51.3086 111.188 50.5379C111.188 48.6926 113.804 46.6352 117.565 46.6352C121.327 46.6352 123.943 48.6926 123.943 50.5379V69.6696C123.943 71.2675 125.237 72.5685 126.834 72.5685C128.432 72.5685 129.733 71.2676 129.733 69.6696V38.2354C129.733 34.7144 132.59 31.858 136.111 31.858C139.632 31.858 142.488 34.7144 142.488 38.2354C142.488 39.8403 143.782 41.1343 145.38 41.1343C146.985 41.1343 148.279 39.8404 148.279 38.2354C148.265 31.5257 142.821 26.0957 136.111 26.0957C129.401 26.0957 123.957 31.5257 123.943 38.2354V42.3149C121.956 41.3392 119.771 40.8372 117.565 40.8443C111.548 40.2433 106.154 44.5421 105.39 50.5378C105.39 51.3084 105.701 52.0437 106.239 52.5881C106.783 53.1325 107.518 53.4366 108.289 53.4366L108.289 53.4368Z" fill="white" fill-opacity="0.54"/>
</svg>
